<?xml version="1.0" encoding="utf-8"?>
<!-- Generator: Adobe Illustrator 25.2.3, SVG Export Plug-In . SVG Version: 6.00 Build 0)  -->
<svg version="1.1" id="Layer_1" xmlns="http://www.w3.org/2000/svg" xmlns:xlink="http://www.w3.org/1999/xlink" x="0px" y="0px"
	 viewBox="0 0 165.77 199.26" style="enable-background:new 0 0 165.77 199.26;" xml:space="preserve">
<style type="text/css">
	.st0{fill:#18064E;}
</style>
<g>
	<path class="st0" d="M95.17,184.06c6.21,0,11.26-5.05,11.26-11.26c0-6.21-5.05-11.25-11.26-11.25c-6.21,0-11.25,5.05-11.25,11.25
		C83.91,179.01,88.96,184.06,95.17,184.06z"/>
	<path class="st0" d="M95.17,31.11c6.21,0,11.26-5.05,11.26-11.26c0-6.21-5.05-11.25-11.26-11.25c-6.21,0-11.25,5.05-11.25,11.25
		C83.91,26.06,88.96,31.11,95.17,31.11z"/>
	<path class="st0" d="M43.59,82.09c6.21,0,11.26-5.05,11.26-11.26c0-6.21-5.05-11.25-11.26-11.25c-6.21,0-11.25,5.05-11.25,11.25
		C32.34,77.04,37.39,82.09,43.59,82.09z"/>
	<path class="st0" d="M43.59,133.07c6.21,0,11.26-5.05,11.26-11.26c0-6.21-5.05-11.25-11.26-11.25c-6.21,0-11.25,5.05-11.25,11.25
		C32.34,128.02,37.39,133.07,43.59,133.07z"/>
	<path class="st0" d="M69.38,158.57c6.21,0,11.25-5.05,11.25-11.25c0-6.21-5.05-11.26-11.25-11.26c-6.21,0-11.26,5.05-11.26,11.26
		C58.12,153.52,63.17,158.57,69.38,158.57z"/>
	<path class="st0" d="M69.38,56.6c6.21,0,11.25-5.05,11.25-11.26c0-6.21-5.05-11.26-11.25-11.26c-6.21,0-11.26,5.05-11.26,11.26
		C58.12,51.55,63.17,56.6,69.38,56.6z"/>
	<path class="st0" d="M18.04,107.58c6.21,0,11.26-5.05,11.26-11.26c0-6.21-5.05-11.25-11.26-11.25c-6.21,0-11.25,5.05-11.25,11.25
		C6.79,102.53,11.84,107.58,18.04,107.58z"/>
	<path class="st0" d="M143.21,184.06c6.21,0,11.26-5.05,11.26-11.26c0-6.21-5.05-11.25-11.26-11.25c-6.21,0-11.26,5.05-11.26,11.25
		C131.96,179.01,137.01,184.06,143.21,184.06z"/>
	<path class="st0" d="M143.21,31.11c6.21,0,11.26-5.05,11.26-11.26c0-6.21-5.05-11.25-11.26-11.25c-6.21,0-11.26,5.05-11.26,11.25
		C131.96,26.06,137.01,31.11,143.21,31.11z"/>
	<path class="st0" d="M91.64,82.09c6.21,0,11.26-5.05,11.26-11.26c0-6.21-5.05-11.25-11.26-11.25s-11.25,5.05-11.25,11.25
		C80.38,77.04,85.43,82.09,91.64,82.09z"/>
	<path class="st0" d="M91.64,133.07c6.21,0,11.26-5.05,11.26-11.26c0-6.21-5.05-11.25-11.26-11.25s-11.25,5.05-11.25,11.25
		C80.38,128.02,85.43,133.07,91.64,133.07z"/>
	<path class="st0" d="M117.43,158.57c6.21,0,11.26-5.05,11.26-11.25c0-6.21-5.05-11.26-11.26-11.26c-6.21,0-11.26,5.05-11.26,11.26
		C106.17,153.52,111.22,158.57,117.43,158.57z"/>
	<path class="st0" d="M117.43,56.6c6.21,0,11.26-5.05,11.26-11.26c0-6.21-5.05-11.26-11.26-11.26c-6.21,0-11.26,5.05-11.26,11.26
		C106.17,51.55,111.22,56.6,117.43,56.6z"/>
	<path class="st0" d="M66.09,107.58c6.21,0,11.26-5.05,11.26-11.26c0-6.21-5.05-11.25-11.26-11.25c-6.21,0-11.26,5.05-11.26,11.25
		C54.84,102.53,59.89,107.58,66.09,107.58z"/>
</g>
</svg>
