<?xml version="1.0" encoding="utf-8"?>
<!-- Generator: Adobe Illustrator 25.2.3, SVG Export Plug-In . SVG Version: 6.00 Build 0)  -->
<svg version="1.1" id="Layer_1" xmlns="http://www.w3.org/2000/svg" xmlns:xlink="http://www.w3.org/1999/xlink" x="0px" y="0px"
	 viewBox="0 0 160 188" style="enable-background:new 0 0 160 188;" xml:space="preserve">
<style type="text/css">
	.st0{fill:#18064E;}
</style>
<g>
	<path class="st0" d="M64.96,182.85c-6.21,0-11.26-5.05-11.26-11.26c0-6.21,5.05-11.25,11.26-11.25c6.21,0,11.25,5.05,11.25,11.25
		C76.22,177.8,71.17,182.85,64.96,182.85z"/>
	<path class="st0" d="M64.96,29.9c-6.21,0-11.26-5.05-11.26-11.26c0-6.21,5.05-11.25,11.26-11.25c6.21,0,11.25,5.05,11.25,11.25
		C76.22,24.85,71.17,29.9,64.96,29.9z"/>
	<path class="st0" d="M116.54,80.88c-6.21,0-11.26-5.05-11.26-11.26c0-6.21,5.05-11.25,11.26-11.25s11.25,5.05,11.25,11.25
		C127.79,75.83,122.74,80.88,116.54,80.88z"/>
	<path class="st0" d="M116.54,131.86c-6.21,0-11.26-5.05-11.26-11.26c0-6.21,5.05-11.25,11.26-11.25s11.25,5.05,11.25,11.25
		C127.79,126.81,122.74,131.86,116.54,131.86z"/>
	<path class="st0" d="M90.75,157.36c-6.21,0-11.25-5.05-11.25-11.25c0-6.21,5.05-11.26,11.25-11.26c6.21,0,11.26,5.05,11.26,11.26
		C102.01,152.31,96.96,157.36,90.75,157.36z"/>
	<path class="st0" d="M90.75,55.39c-6.21,0-11.25-5.05-11.25-11.26c0-6.21,5.05-11.26,11.25-11.26c6.21,0,11.26,5.05,11.26,11.26
		C102.01,50.34,96.96,55.39,90.75,55.39z"/>
	<path class="st0" d="M142.09,106.37c-6.21,0-11.26-5.05-11.26-11.26c0-6.21,5.05-11.25,11.26-11.25c6.21,0,11.25,5.05,11.25,11.25
		C153.34,101.32,148.29,106.37,142.09,106.37z"/>
	<path class="st0" d="M16.91,182.85c-6.21,0-11.26-5.05-11.26-11.26c0-6.21,5.05-11.25,11.26-11.25c6.21,0,11.26,5.05,11.26,11.25
		C28.17,177.8,23.12,182.85,16.91,182.85z"/>
	<path class="st0" d="M16.91,29.9c-6.21,0-11.26-5.05-11.26-11.26c0-6.21,5.05-11.25,11.26-11.25c6.21,0,11.26,5.05,11.26,11.25
		C28.17,24.85,23.12,29.9,16.91,29.9z"/>
	<path class="st0" d="M68.49,80.88c-6.21,0-11.26-5.05-11.26-11.26c0-6.21,5.05-11.25,11.26-11.25s11.25,5.05,11.25,11.25
		C79.75,75.83,74.7,80.88,68.49,80.88z"/>
	<path class="st0" d="M68.49,131.86c-6.21,0-11.26-5.05-11.26-11.26c0-6.21,5.05-11.25,11.26-11.25s11.25,5.05,11.25,11.25
		C79.75,126.81,74.7,131.86,68.49,131.86z"/>
	<path class="st0" d="M42.7,157.36c-6.21,0-11.25-5.05-11.25-11.25c0-6.21,5.05-11.26,11.25-11.26c6.21,0,11.26,5.05,11.26,11.26
		C53.96,152.31,48.91,157.36,42.7,157.36z"/>
	<path class="st0" d="M42.7,55.39c-6.21,0-11.25-5.05-11.25-11.26c0-6.21,5.05-11.26,11.25-11.26c6.21,0,11.26,5.05,11.26,11.26
		C53.96,50.34,48.91,55.39,42.7,55.39z"/>
	<path class="st0" d="M94.04,106.37c-6.21,0-11.26-5.05-11.26-11.26c0-6.21,5.05-11.25,11.26-11.25c6.21,0,11.26,5.05,11.26,11.25
		C105.29,101.32,100.24,106.37,94.04,106.37z"/>
</g>
</svg>
