<?xml version="1.0" encoding="utf-8"?>
<!-- Generator: Adobe Illustrator 25.2.3, SVG Export Plug-In . SVG Version: 6.00 Build 0)  -->
<svg version="1.1" id="Layer_1" xmlns="http://www.w3.org/2000/svg" xmlns:xlink="http://www.w3.org/1999/xlink" x="0px" y="0px"
	 viewBox="0 0 932.18 932.18" style="enable-background:new 0 0 932.18 932.18;" xml:space="preserve">
<style type="text/css">
	.st0{fill:#18064E;}
</style>
<g>
	<g>
		<g>
			<circle class="st0" cx="465.72" cy="107.26" r="15.35"/>
		</g>
		<g>
			
				<ellipse transform="matrix(0.5311 -0.8473 0.8473 0.5311 82.4482 381.4899)" class="st0" cx="385.9" cy="116.25" rx="15.35" ry="15.35"/>
		</g>
		<g>
			<path class="st0" d="M323.92,136.12c3.68,7.64,0.47,16.81-7.17,20.49c-7.64,3.68-16.81,0.47-20.49-7.17
				c-3.68-7.64-0.47-16.81,7.17-20.49C311.07,125.27,320.24,128.48,323.92,136.12z"/>
		</g>
		<g>
			<path class="st0" d="M254.08,175.94c5.29,6.63,4.2,16.29-2.43,21.58c-6.63,5.29-16.29,4.2-21.58-2.43
				c-5.29-6.63-4.2-16.29,2.43-21.58C239.13,168.23,248.79,169.31,254.08,175.94z"/>
		</g>
		<g>
			<path class="st0" d="M194.85,230.31c6.63,5.29,7.72,14.95,2.43,21.58c-5.29,6.63-14.95,7.72-21.58,2.43
				c-6.63-5.29-7.72-14.95-2.43-21.58C178.57,226.11,188.22,225.02,194.85,230.31z"/>
		</g>
		<g>
			
				<ellipse transform="matrix(0.9179 -0.3967 0.3967 0.9179 -111.4149 82.018)" class="st0" cx="142.55" cy="310.32" rx="15.35" ry="15.35"/>
		</g>
		<g>
			<path class="st0" d="M119.43,371.17c8.27,1.89,13.44,10.12,11.55,18.38c-1.89,8.27-10.12,13.44-18.38,11.55
				c-8.27-1.89-13.44-10.12-11.55-18.38C102.94,374.45,111.17,369.28,119.43,371.17z"/>
		</g>
		<g>
			<path class="st0" d="M107.03,450.6c8.48,0,15.35,6.87,15.35,15.35c0,8.48-6.87,15.35-15.35,15.35c-8.48,0-15.35-6.87-15.35-15.35
				C91.67,457.48,98.55,450.6,107.03,450.6z"/>
		</g>
		<g>
			<path class="st0" d="M112.6,530.8c8.27-1.89,16.5,3.29,18.38,11.55c1.89,8.27-3.29,16.5-11.55,18.38
				c-8.27,1.89-16.5-3.29-18.38-11.55C99.16,540.92,104.34,532.69,112.6,530.8z"/>
		</g>
		<g>
			
				<ellipse transform="matrix(0.2513 -0.9679 0.9679 0.2513 -494.9141 603.3429)" class="st0" cx="142.55" cy="621.59" rx="15.35" ry="15.35"/>
		</g>
		<g>
			<path class="st0" d="M175.71,677.59c6.63-5.29,16.29-4.2,21.58,2.43c5.29,6.63,4.2,16.29-2.43,21.58
				c-6.63,5.29-16.29,4.2-21.58-2.43C167.99,692.54,169.08,682.88,175.71,677.59z"/>
		</g>
		<g>
			<path class="st0" d="M230.07,736.82c5.29-6.63,14.95-7.72,21.58-2.43c6.63,5.29,7.72,14.95,2.43,21.58
				c-5.29,6.63-14.95,7.72-21.58,2.43C225.88,753.11,224.79,743.45,230.07,736.82z"/>
		</g>
		<g>
			
				<ellipse transform="matrix(1 -8.817225e-03 8.817225e-03 1 -6.9459 2.7648)" class="st0" cx="310.09" cy="789.13" rx="15.35" ry="15.35"/>
		</g>
		<g>
			
				<ellipse transform="matrix(0.8477 -0.5305 0.5305 0.8477 -373.9471 328.9899)" class="st0" cx="385.9" cy="815.66" rx="15.35" ry="15.35"/>
		</g>
		<g>
			<circle class="st0" cx="465.72" cy="824.65" r="15.35"/>
		</g>
		<g>
			<path class="st0" d="M530.57,819.07c-1.89-8.27,3.28-16.5,11.55-18.38c8.27-1.89,16.5,3.29,18.38,11.55
				c1.89,8.27-3.29,16.5-11.55,18.38C540.69,832.51,532.46,827.34,530.57,819.07z"/>
		</g>
		<g>
			<path class="st0" d="M607.52,795.79c-3.68-7.64-0.47-16.81,7.17-20.49c7.64-3.68,16.81-0.47,20.49,7.17
				c3.68,7.64,0.47,16.81-7.17,20.49C620.38,806.64,611.2,803.43,607.52,795.79z"/>
		</g>
		<g>
			<path class="st0" d="M677.36,755.97c-5.29-6.63-4.2-16.29,2.43-21.58c6.63-5.29,16.29-4.2,21.58,2.43
				c5.29,6.63,4.2,16.29-2.43,21.58C692.31,763.68,682.65,762.6,677.36,755.97z"/>
		</g>
		<g>
			<path class="st0" d="M736.59,701.6c-6.63-5.29-7.72-14.95-2.43-21.58c5.29-6.63,14.95-7.72,21.58-2.43
				c6.63,5.29,7.72,14.95,2.43,21.58C752.88,705.8,743.22,706.89,736.59,701.6z"/>
		</g>
		<g>
			<path class="st0" d="M782.23,635.42c-7.64-3.68-10.85-12.85-7.17-20.49c3.68-7.64,12.85-10.85,20.49-7.17
				c7.64,3.68,10.85,12.85,7.17,20.49C799.05,635.89,789.87,639.1,782.23,635.42z"/>
		</g>
		<g>
			<path class="st0" d="M812.01,560.74c-8.27-1.89-13.44-10.12-11.55-18.38c1.89-8.27,10.12-13.44,18.38-11.55
				c8.27,1.89,13.44,10.12,11.55,18.38C828.5,557.45,820.27,562.63,812.01,560.74z"/>
		</g>
		<g>
			<path class="st0" d="M824.42,481.31c-8.48,0-15.35-6.87-15.35-15.35c0-8.48,6.87-15.35,15.35-15.35
				c8.48,0,15.35,6.87,15.35,15.35C839.77,474.43,832.9,481.31,824.42,481.31z"/>
		</g>
		<g>
			<path class="st0" d="M818.84,401.11c-8.27,1.89-16.5-3.29-18.38-11.55c-1.89-8.27,3.28-16.5,11.55-18.38
				c8.27-1.89,16.5,3.28,18.38,11.55C832.28,390.99,827.11,399.22,818.84,401.11z"/>
		</g>
		<g>
			
				<ellipse transform="matrix(0.9727 -0.2319 0.2319 0.9727 -50.4597 191.4143)" class="st0" cx="788.89" cy="310.32" rx="15.35" ry="15.35"/>
		</g>
		<g>
			<path class="st0" d="M755.73,254.31c-6.63,5.29-16.29,4.2-21.58-2.43c-5.29-6.63-4.2-16.29,2.43-21.58
				c6.63-5.29,16.29-4.2,21.58,2.43S762.36,249.03,755.73,254.31z"/>
		</g>
		<g>
			<path class="st0" d="M701.37,195.09c-5.29,6.63-14.95,7.72-21.58,2.43c-6.63-5.29-7.72-14.95-2.43-21.58
				c5.29-6.63,14.95-7.72,21.58-2.43C705.57,178.8,706.65,188.46,701.37,195.09z"/>
		</g>
		<g>
			<path class="st0" d="M635.19,149.44c-3.68,7.64-12.85,10.85-20.49,7.17c-7.64-3.68-10.85-12.85-7.17-20.49
				c3.68-7.64,12.85-10.85,20.49-7.17C635.65,132.63,638.86,141.8,635.19,149.44z"/>
		</g>
		<g>
			<path class="st0" d="M560.51,119.67c-1.89,8.27-10.12,13.44-18.38,11.55c-8.27-1.89-13.44-10.12-11.55-18.38
				c1.89-8.27,10.12-13.44,18.38-11.55C557.22,103.17,562.39,111.4,560.51,119.67z"/>
		</g>
	</g>
	<g>
		<g>
			<circle class="st0" cx="465.72" cy="173.83" r="12.5"/>
		</g>
		<g>
			<path class="st0" d="M412.91,178.37c1.54,6.73-2.68,13.44-9.41,14.97c-6.73,1.54-13.44-2.68-14.97-9.41
				c-1.54-6.73,2.68-13.44,9.41-14.97C404.67,167.43,411.37,171.64,412.91,178.37z"/>
		</g>
		<g>
			<path class="st0" d="M350.24,197.33c3,6.22,0.38,13.69-5.84,16.69c-6.22,3-13.69,0.38-16.69-5.84c-3-6.22-0.38-13.69,5.84-16.69
				C339.77,188.5,347.24,191.11,350.24,197.33z"/>
		</g>
		<g>
			<path class="st0" d="M293.36,229.76c4.31,5.4,3.42,13.27-1.98,17.57c-5.4,4.31-13.27,3.42-17.57-1.98
				c-4.31-5.4-3.42-13.27,1.98-17.57C281.19,223.48,289.05,224.37,293.36,229.76z"/>
		</g>
		<g>
			<path class="st0" d="M245.12,274.04c5.4,4.31,6.29,12.17,1.98,17.57c-4.31,5.4-12.17,6.29-17.57,1.98
				c-5.4-4.31-6.29-12.17-1.98-17.57C231.86,270.62,239.72,269.74,245.12,274.04z"/>
		</g>
		<g>
			<path class="st0" d="M207.95,327.94c6.22,3,8.84,10.47,5.84,16.69c-3,6.22-10.47,8.84-16.69,5.84c-6.22-3-8.84-10.47-5.84-16.69
				C194.25,327.56,201.73,324.94,207.95,327.94z"/>
		</g>
		<g>
			<path class="st0" d="M183.7,388.76c6.73,1.54,10.94,8.24,9.41,14.97c-1.54,6.73-8.24,10.94-14.97,9.41
				c-6.73-1.54-10.94-8.24-9.41-14.97C170.27,391.44,176.97,387.22,183.7,388.76z"/>
		</g>
		<g>
			<path class="st0" d="M173.59,453.45c6.91,0,12.5,5.6,12.5,12.5c0,6.91-5.6,12.5-12.5,12.5c-6.91,0-12.5-5.6-12.5-12.5
				C161.09,459.05,166.69,453.45,173.59,453.45z"/>
		</g>
		<g>
			<path class="st0" d="M178.14,518.77c6.73-1.54,13.44,2.68,14.97,9.41c1.54,6.73-2.68,13.44-9.41,14.97
				c-6.73,1.54-13.44-2.68-14.97-9.41C167.19,527.01,171.4,520.31,178.14,518.77z"/>
		</g>
		<g>
			<path class="st0" d="M197.1,581.44c6.22-3,13.69-0.38,16.69,5.84c3,6.22,0.38,13.69-5.84,16.69c-6.22,3-13.69,0.38-16.69-5.84
				C188.26,591.91,190.88,584.43,197.1,581.44z"/>
		</g>
		<g>
			<path class="st0" d="M229.53,638.32c5.4-4.31,13.27-3.42,17.57,1.98c4.31,5.4,3.42,13.27-1.98,17.57
				c-5.4,4.31-13.27,3.42-17.57-1.98C223.25,650.49,224.13,642.62,229.53,638.32z"/>
		</g>
		<g>
			<path class="st0" d="M273.81,686.55c4.31-5.4,12.17-6.29,17.57-1.98c5.4,4.31,6.29,12.17,1.98,17.57
				c-4.31,5.4-12.17,6.29-17.57,1.98C270.39,699.82,269.5,691.95,273.81,686.55z"/>
		</g>
		<g>
			<path class="st0" d="M327.71,723.73c3-6.22,10.47-8.84,16.69-5.84c6.22,3,8.84,10.47,5.84,16.69c-3,6.22-10.47,8.84-16.69,5.84
				C327.33,737.42,324.71,729.95,327.71,723.73z"/>
		</g>
		<g>
			<path class="st0" d="M388.53,747.98c1.54-6.73,8.24-10.94,14.97-9.41c6.73,1.54,10.94,8.24,9.41,14.97
				c-1.54,6.73-8.24,10.94-14.97,9.41C391.2,761.41,386.99,754.71,388.53,747.98z"/>
		</g>
		<g>
			<circle class="st0" cx="465.72" cy="758.08" r="12.5"/>
		</g>
		<g>
			<path class="st0" d="M518.54,753.54c-1.54-6.73,2.68-13.44,9.41-14.97c6.73-1.54,13.44,2.68,14.97,9.41
				c1.54,6.73-2.68,13.44-9.41,14.97C526.78,764.48,520.07,760.27,518.54,753.54z"/>
		</g>
		<g>
			<path class="st0" d="M581.21,734.58c-3-6.22-0.38-13.69,5.84-16.69c6.22-3,13.69-0.38,16.69,5.84c3,6.22,0.38,13.69-5.84,16.69
				C591.67,743.41,584.2,740.8,581.21,734.58z"/>
		</g>
		<g>
			<path class="st0" d="M638.08,702.14c-4.31-5.4-3.42-13.27,1.98-17.57c5.4-4.31,13.27-3.42,17.57,1.98
				c4.31,5.4,3.42,13.27-1.98,17.57C650.26,708.43,642.39,707.54,638.08,702.14z"/>
		</g>
		<g>
			<path class="st0" d="M686.32,657.87c-5.4-4.31-6.29-12.17-1.98-17.57c4.31-5.4,12.17-6.29,17.57-1.98
				c5.4,4.31,6.29,12.17,1.98,17.57C699.59,661.29,691.72,662.17,686.32,657.87z"/>
		</g>
		<g>
			<path class="st0" d="M723.49,603.97c-6.22-3-8.84-10.47-5.84-16.69c3-6.22,10.47-8.84,16.69-5.84c6.22,3,8.84,10.47,5.84,16.69
				C737.19,604.35,729.72,606.97,723.49,603.97z"/>
		</g>
		<g>
			<path class="st0" d="M747.74,543.15c-6.73-1.54-10.94-8.24-9.41-14.97c1.54-6.73,8.24-10.94,14.97-9.41
				c6.73,1.54,10.94,8.24,9.41,14.97C761.18,540.47,754.47,544.69,747.74,543.15z"/>
		</g>
		<g>
			<path class="st0" d="M757.85,478.46c-6.91,0-12.5-5.6-12.5-12.5c0-6.91,5.6-12.5,12.5-12.5c6.91,0,12.5,5.6,12.5,12.5
				C770.35,472.86,764.75,478.46,757.85,478.46z"/>
		</g>
		<g>
			<path class="st0" d="M753.31,413.14c-6.73,1.54-13.44-2.68-14.97-9.41c-1.54-6.73,2.68-13.44,9.41-14.97
				c6.73-1.54,13.44,2.68,14.97,9.41C764.25,404.9,760.04,411.6,753.31,413.14z"/>
		</g>
		<g>
			<path class="st0" d="M734.34,350.47c-6.22,3-13.69,0.38-16.69-5.84c-3-6.22-0.38-13.69,5.84-16.69c6.22-3,13.69-0.38,16.69,5.84
				C743.18,340,740.57,347.47,734.34,350.47z"/>
		</g>
		<g>
			<path class="st0" d="M701.91,293.59c-5.4,4.31-13.27,3.42-17.57-1.98c-4.31-5.4-3.42-13.27,1.98-17.57
				c5.4-4.31,13.27-3.42,17.57,1.98C708.2,281.42,707.31,289.29,701.91,293.59z"/>
		</g>
		<g>
			<path class="st0" d="M657.64,245.36c-4.31,5.4-12.17,6.29-17.57,1.98c-5.4-4.31-6.29-12.17-1.98-17.57
				c4.31-5.4,12.17-6.29,17.57-1.98C661.05,232.09,661.94,239.96,657.64,245.36z"/>
		</g>
		<g>
			<path class="st0" d="M603.74,208.18c-3,6.22-10.47,8.84-16.69,5.84c-6.22-3-8.84-10.47-5.84-16.69c3-6.22,10.47-8.84,16.69-5.84
				C604.12,194.49,606.73,201.96,603.74,208.18z"/>
		</g>
		<g>
			<path class="st0" d="M542.92,183.93c-1.54,6.73-8.24,10.94-14.97,9.41c-6.73-1.54-10.94-8.24-9.41-14.97
				c1.54-6.73,8.24-10.94,14.97-9.41C540.24,170.5,544.45,177.2,542.92,183.93z"/>
		</g>
	</g>
	<g>
		<g>
			<circle class="st0" cx="465.72" cy="234.93" r="9.89"/>
		</g>
		<g>
			<path class="st0" d="M423.95,238.52c1.22,5.32-2.12,10.63-7.44,11.84c-5.32,1.22-10.63-2.12-11.84-7.44
				c-1.22-5.32,2.12-10.63,7.44-11.84C417.44,229.87,422.74,233.2,423.95,238.52z"/>
		</g>
		<g>
			<path class="st0" d="M374.39,253.52c2.37,4.92,0.3,10.83-4.62,13.2c-4.92,2.37-10.83,0.3-13.2-4.62
				c-2.37-4.92-0.3-10.83,4.62-13.2C366.11,246.53,372.02,248.6,374.39,253.52z"/>
		</g>
		<g>
			<path class="st0" d="M329.41,279.17c3.4,4.27,2.7,10.49-1.57,13.9c-4.27,3.41-10.49,2.7-13.9-1.57
				c-3.41-4.27-2.7-10.49,1.57-13.9C319.79,274.2,326.01,274.9,329.41,279.17z"/>
		</g>
		<g>
			<path class="st0" d="M291.27,314.18c4.27,3.41,4.97,9.63,1.57,13.9c-3.4,4.27-9.63,4.97-13.9,1.57c-4.27-3.4-4.97-9.63-1.57-13.9
				C280.77,311.48,287,310.78,291.27,314.18z"/>
		</g>
		<g>
			<path class="st0" d="M261.87,356.81c4.92,2.37,6.99,8.28,4.62,13.2c-2.37,4.92-8.28,6.99-13.2,4.62
				c-4.92-2.37-6.99-8.28-4.62-13.2S256.95,354.44,261.87,356.81z"/>
		</g>
		<g>
			<path class="st0" d="M242.69,404.91c5.32,1.22,8.66,6.52,7.44,11.84c-1.22,5.32-6.52,8.66-11.84,7.44
				c-5.32-1.22-8.66-6.52-7.44-11.84C232.07,407.02,237.37,403.69,242.69,404.91z"/>
		</g>
		<g>
			<path class="st0" d="M234.7,456.07c5.46,0,9.89,4.43,9.89,9.89c0,5.46-4.43,9.89-9.89,9.89c-5.46,0-9.89-4.43-9.89-9.89
				C224.81,460.49,229.24,456.07,234.7,456.07z"/>
		</g>
		<g>
			<path class="st0" d="M238.29,507.72c5.32-1.22,10.63,2.12,11.84,7.44c1.22,5.32-2.12,10.63-7.44,11.84
				c-5.32,1.22-10.63-2.12-11.84-7.44C229.63,514.24,232.97,508.94,238.29,507.72z"/>
		</g>
		<g>
			<path class="st0" d="M253.29,557.28c4.92-2.37,10.83-0.3,13.2,4.62c2.37,4.92,0.3,10.83-4.62,13.2
				c-4.92,2.37-10.83,0.3-13.2-4.62S248.37,559.65,253.29,557.28z"/>
		</g>
		<g>
			<path class="st0" d="M278.93,602.26c4.27-3.41,10.49-2.7,13.9,1.57c3.4,4.27,2.7,10.49-1.57,13.9c-4.27,3.4-10.49,2.7-13.9-1.57
				C273.96,611.89,274.67,605.67,278.93,602.26z"/>
		</g>
		<g>
			<path class="st0" d="M313.95,640.41c3.4-4.27,9.63-4.97,13.9-1.57c4.27,3.41,4.97,9.63,1.57,13.9c-3.41,4.27-9.63,4.97-13.9,1.57
				C311.25,650.9,310.54,644.68,313.95,640.41z"/>
		</g>
		<g>
			<path class="st0" d="M356.58,669.81c2.37-4.92,8.28-6.99,13.2-4.62c4.92,2.37,6.99,8.28,4.62,13.2s-8.28,6.99-13.2,4.62
				C356.27,680.64,354.21,674.73,356.58,669.81z"/>
		</g>
		<g>
			<path class="st0" d="M404.67,688.99c1.22-5.32,6.52-8.66,11.84-7.44c5.32,1.22,8.66,6.52,7.44,11.84
				c-1.21,5.32-6.52,8.66-11.84,7.44C406.79,699.61,403.46,694.31,404.67,688.99z"/>
		</g>
		<g>
			<circle class="st0" cx="465.72" cy="696.98" r="9.89"/>
		</g>
		<g>
			<path class="st0" d="M507.49,693.39c-1.22-5.32,2.12-10.63,7.44-11.84c5.32-1.22,10.63,2.12,11.84,7.44
				c1.22,5.32-2.12,10.63-7.44,11.84C514,702.04,508.7,698.71,507.49,693.39z"/>
		</g>
		<g>
			<path class="st0" d="M557.05,678.39c-2.37-4.92-0.3-10.83,4.62-13.2s10.83-0.3,13.2,4.62s0.3,10.83-4.62,13.2
				C565.33,685.38,559.42,683.31,557.05,678.39z"/>
		</g>
		<g>
			<path class="st0" d="M602.03,652.74c-3.4-4.27-2.7-10.49,1.57-13.9c4.27-3.4,10.49-2.7,13.9,1.57c3.41,4.27,2.7,10.49-1.57,13.9
				C611.66,657.71,605.44,657.01,602.03,652.74z"/>
		</g>
		<g>
			<path class="st0" d="M640.18,617.73c-4.27-3.41-4.97-9.63-1.57-13.9c3.4-4.27,9.63-4.97,13.9-1.57c4.27,3.4,4.97,9.63,1.57,13.9
				C650.67,620.43,644.45,621.13,640.18,617.73z"/>
		</g>
		<g>
			<path class="st0" d="M669.58,575.1c-4.92-2.37-6.99-8.28-4.62-13.2c2.37-4.92,8.28-6.99,13.2-4.62c4.92,2.37,6.99,8.28,4.62,13.2
				C680.41,575.4,674.5,577.47,669.58,575.1z"/>
		</g>
		<g>
			<path class="st0" d="M688.75,527c-5.32-1.22-8.66-6.52-7.44-11.84c1.22-5.32,6.52-8.66,11.84-7.44
				c5.32,1.22,8.66,6.52,7.44,11.84C699.38,524.89,694.08,528.22,688.75,527z"/>
		</g>
		<g>
			<path class="st0" d="M696.74,475.84c-5.46,0-9.89-4.43-9.89-9.89c0-5.46,4.43-9.89,9.89-9.89c5.46,0,9.89,4.43,9.89,9.89
				C706.63,471.42,702.21,475.84,696.74,475.84z"/>
		</g>
		<g>
			<path class="st0" d="M693.15,424.19c-5.32,1.22-10.63-2.12-11.84-7.44c-1.22-5.32,2.12-10.63,7.44-11.84
				c5.32-1.21,10.63,2.12,11.84,7.44C701.81,417.67,698.48,422.97,693.15,424.19z"/>
		</g>
		<g>
			<path class="st0" d="M678.16,374.63c-4.92,2.37-10.83,0.3-13.2-4.62c-2.37-4.92-0.3-10.83,4.62-13.2
				c4.92-2.37,10.83-0.3,13.2,4.62C685.14,366.35,683.08,372.26,678.16,374.63z"/>
		</g>
		<g>
			<path class="st0" d="M652.51,329.65c-4.27,3.41-10.49,2.7-13.9-1.57c-3.4-4.27-2.7-10.49,1.57-13.9c4.27-3.4,10.49-2.7,13.9,1.57
				C657.48,320.02,656.78,326.24,652.51,329.65z"/>
		</g>
		<g>
			
				<ellipse transform="matrix(0.9987 -0.0515 0.0515 0.9987 -13.8896 31.7914)" class="st0" cx="609.76" cy="285.33" rx="9.89" ry="9.89"/>
		</g>
		<g>
			<path class="st0" d="M574.87,262.1c-2.37,4.92-8.28,6.99-13.2,4.62c-4.92-2.37-6.99-8.28-4.62-13.2s8.28-6.99,13.2-4.62
				C575.17,251.27,577.24,257.18,574.87,262.1z"/>
		</g>
		<g>
			<path class="st0" d="M526.77,242.92c-1.22,5.32-6.52,8.66-11.84,7.44c-5.32-1.22-8.66-6.52-7.44-11.84
				c1.22-5.32,6.52-8.66,11.84-7.44C524.65,232.3,527.98,237.6,526.77,242.92z"/>
		</g>
	</g>
	<g>
		<g>
			<circle class="st0" cx="465.72" cy="291.02" r="7.49"/>
		</g>
		<g>
			<path class="st0" d="M434.09,293.74c0.92,4.03-1.6,8.05-5.63,8.97c-4.03,0.92-8.05-1.6-8.97-5.63c-0.92-4.03,1.6-8.05,5.63-8.97
				C429.16,287.19,433.17,289.71,434.09,293.74z"/>
		</g>
		<g>
			<path class="st0" d="M396.57,305.1c1.79,3.73,0.23,8.2-3.5,9.99c-3.73,1.79-8.2,0.23-9.99-3.5c-1.79-3.73-0.23-8.2,3.5-9.99
				C390.3,299.8,394.77,301.37,396.57,305.1z"/>
		</g>
		<g>
			<path class="st0" d="M362.5,324.52c2.58,3.23,2.05,7.94-1.19,10.52c-3.23,2.58-7.94,2.05-10.52-1.19
				c-2.58-3.23-2.05-7.94,1.19-10.52C355.22,320.75,359.93,321.28,362.5,324.52z"/>
		</g>
		<g>
			<path class="st0" d="M333.62,351.03c3.23,2.58,3.76,7.29,1.19,10.52c-2.58,3.23-7.29,3.76-10.52,1.19
				c-3.23-2.58-3.76-7.29-1.19-10.52C325.68,348.98,330.39,348.45,333.62,351.03z"/>
		</g>
		<g>
			<path class="st0" d="M311.36,383.31c3.73,1.79,5.29,6.27,3.5,9.99c-1.79,3.73-6.27,5.29-9.99,3.5c-3.73-1.79-5.29-6.27-3.5-9.99
				C303.16,383.08,307.63,381.51,311.36,383.31z"/>
		</g>
		<g>
			<path class="st0" d="M296.84,419.73c4.03,0.92,6.55,4.93,5.63,8.97c-0.92,4.03-4.93,6.55-8.97,5.63
				c-4.03-0.92-6.55-4.93-5.63-8.97C288.79,421.33,292.81,418.81,296.84,419.73z"/>
		</g>
		<g>
			<path class="st0" d="M290.79,458.47c4.14,0,7.49,3.35,7.49,7.49c0,4.14-3.35,7.49-7.49,7.49c-4.14,0-7.49-3.35-7.49-7.49
				C283.3,461.82,286.65,458.47,290.79,458.47z"/>
		</g>
		<g>
			<path class="st0" d="M293.51,497.58c4.03-0.92,8.05,1.6,8.97,5.63c0.92,4.03-1.6,8.05-5.63,8.97c-4.03,0.92-8.05-1.6-8.97-5.63
				C286.95,502.52,289.47,498.5,293.51,497.58z"/>
		</g>
		<g>
			<path class="st0" d="M304.86,535.11c3.73-1.79,8.2-0.23,9.99,3.5c1.79,3.73,0.23,8.2-3.5,9.99c-3.73,1.79-8.2,0.23-9.99-3.5
				C299.57,541.38,301.14,536.9,304.86,535.11z"/>
		</g>
		<g>
			<path class="st0" d="M324.28,569.17c3.23-2.58,7.94-2.05,10.52,1.19c2.58,3.23,2.05,7.94-1.19,10.52
				c-3.23,2.58-7.94,2.05-10.52-1.19C320.52,576.46,321.05,571.75,324.28,569.17z"/>
		</g>
		<g>
			<path class="st0" d="M350.8,598.06c2.58-3.23,7.29-3.76,10.52-1.19c3.23,2.58,3.76,7.29,1.19,10.52
				c-2.58,3.23-7.29,3.76-10.52,1.19C348.75,606,348.22,601.29,350.8,598.06z"/>
		</g>
		<g>
			<path class="st0" d="M383.07,620.32c1.79-3.73,6.27-5.29,9.99-3.5c3.73,1.79,5.29,6.27,3.5,9.99c-1.79,3.73-6.27,5.29-9.99,3.5
				C382.85,628.52,381.28,624.04,383.07,620.32z"/>
		</g>
		<g>
			<path class="st0" d="M419.49,634.84c0.92-4.03,4.93-6.55,8.97-5.63c4.03,0.92,6.55,4.93,5.63,8.97
				c-0.92,4.03-4.93,6.55-8.97,5.63C421.1,642.88,418.57,638.87,419.49,634.84z"/>
		</g>
		<g>
			<circle class="st0" cx="465.72" cy="640.89" r="7.49"/>
		</g>
		<g>
			<path class="st0" d="M497.35,638.17c-0.92-4.03,1.6-8.05,5.63-8.97c4.03-0.92,8.05,1.6,8.97,5.63c0.92,4.03-1.6,8.05-5.63,8.97
				C502.28,644.72,498.27,642.2,497.35,638.17z"/>
		</g>
		<g>
			<path class="st0" d="M534.88,626.81c-1.79-3.73-0.23-8.2,3.5-9.99s8.2-0.23,9.99,3.5c1.79,3.73,0.23,8.2-3.5,9.99
				C541.15,632.11,536.67,630.54,534.88,626.81z"/>
		</g>
		<g>
			<path class="st0" d="M568.94,607.39c-2.58-3.23-2.05-7.94,1.19-10.52c3.23-2.58,7.94-2.05,10.52,1.19
				c2.58,3.23,2.05,7.94-1.19,10.52C576.23,611.16,571.52,610.63,568.94,607.39z"/>
		</g>
		<g>
			<path class="st0" d="M597.82,580.88c-3.23-2.58-3.76-7.29-1.19-10.52c2.58-3.23,7.29-3.76,10.52-1.19
				c3.23,2.58,3.76,7.29,1.19,10.52C605.77,582.93,601.06,583.46,597.82,580.88z"/>
		</g>
		<g>
			<path class="st0" d="M620.08,548.6c-3.73-1.79-5.29-6.27-3.5-9.99s6.27-5.29,9.99-3.5c3.73,1.79,5.29,6.27,3.5,9.99
				S623.81,550.4,620.08,548.6z"/>
		</g>
		<g>
			<path class="st0" d="M634.6,512.18c-4.03-0.92-6.55-4.93-5.63-8.97c0.92-4.03,4.93-6.55,8.97-5.63c4.03,0.92,6.55,4.93,5.63,8.97
				C642.65,510.58,638.64,513.1,634.6,512.18z"/>
		</g>
		<g>
			<path class="st0" d="M640.66,473.44c-4.14,0-7.49-3.35-7.49-7.49c0-4.14,3.35-7.49,7.49-7.49c4.14,0,7.49,3.35,7.49,7.49
				C648.14,470.09,644.79,473.44,640.66,473.44z"/>
		</g>
		<g>
			<path class="st0" d="M637.94,434.33c-4.03,0.92-8.05-1.6-8.97-5.63c-0.92-4.03,1.6-8.05,5.63-8.97c4.03-0.92,8.05,1.6,8.97,5.63
				C644.49,429.39,641.97,433.41,637.94,434.33z"/>
		</g>
		<g>
			<path class="st0" d="M626.58,396.8c-3.73,1.79-8.2,0.23-9.99-3.5c-1.79-3.73-0.23-8.2,3.5-9.99c3.73-1.79,8.2-0.23,9.99,3.5
				C631.87,390.53,630.31,395.01,626.58,396.8z"/>
		</g>
		<g>
			<path class="st0" d="M607.16,362.74c-3.23,2.58-7.94,2.05-10.52-1.19c-2.58-3.23-2.05-7.94,1.19-10.52
				c3.23-2.58,7.94-2.05,10.52,1.19C610.92,355.45,610.39,360.16,607.16,362.74z"/>
		</g>
		<g>
			<path class="st0" d="M580.65,333.85c-2.58,3.23-7.29,3.76-10.52,1.19c-3.23-2.58-3.76-7.29-1.19-10.52
				c2.58-3.23,7.29-3.76,10.52-1.19C582.69,325.91,583.22,330.62,580.65,333.85z"/>
		</g>
		<g>
			<path class="st0" d="M548.37,311.59c-1.79,3.73-6.27,5.29-9.99,3.5c-3.73-1.79-5.29-6.27-3.5-9.99c1.79-3.73,6.27-5.29,9.99-3.5
				C548.6,303.39,550.16,307.87,548.37,311.59z"/>
		</g>
		<g>
			<path class="st0" d="M511.95,297.07c-0.92,4.03-4.93,6.55-8.97,5.63c-4.03-0.92-6.55-4.93-5.63-8.97
				c0.92-4.03,4.93-6.55,8.97-5.63C510.35,289.03,512.87,293.04,511.95,297.07z"/>
		</g>
	</g>
	<g>
		<g>
			<circle class="st0" cx="465.72" cy="342.5" r="5.28"/>
		</g>
		<g>
			<path class="st0" d="M443.4,344.42c0.65,2.84-1.13,5.68-3.98,6.33c-2.85,0.65-5.68-1.13-6.33-3.98
				c-0.65-2.85,1.13-5.68,3.98-6.33C439.92,339.8,442.75,341.58,443.4,344.42z"/>
		</g>
		<g>
			<path class="st0" d="M416.92,352.44c1.27,2.63,0.16,5.79-2.47,7.05c-2.63,1.27-5.79,0.16-7.05-2.47
				c-1.27-2.63-0.16-5.79,2.47-7.05C412.49,348.7,415.65,349.81,416.92,352.44z"/>
		</g>
		<g>
			<path class="st0" d="M392.88,366.14c1.82,2.28,1.45,5.61-0.84,7.43c-2.28,1.82-5.61,1.44-7.43-0.84
				c-1.82-2.28-1.45-5.61,0.84-7.43C387.74,363.49,391.06,363.86,392.88,366.14z"/>
		</g>
		<g>
			<path class="st0" d="M372.5,384.85c2.28,1.82,2.66,5.14,0.84,7.43c-1.82,2.28-5.14,2.66-7.43,0.84
				c-2.28-1.82-2.66-5.14-0.84-7.43C366.89,383.41,370.22,383.03,372.5,384.85z"/>
		</g>
		<g>
			<path class="st0" d="M356.79,407.63c2.63,1.27,3.73,4.42,2.47,7.05c-1.27,2.63-4.42,3.73-7.05,2.47
				c-2.63-1.27-3.73-4.42-2.47-7.05C351,407.47,354.16,406.36,356.79,407.63z"/>
		</g>
		<g>
			<path class="st0" d="M346.54,433.33c2.84,0.65,4.62,3.48,3.98,6.33s-3.48,4.62-6.33,3.98c-2.84-0.65-4.62-3.48-3.98-6.33
				C340.86,434.46,343.7,432.68,346.54,433.33z"/>
		</g>
		<g>
			<path class="st0" d="M342.27,460.67c2.92,0,5.28,2.37,5.28,5.28c0,2.92-2.37,5.28-5.28,5.28c-2.92,0-5.28-2.37-5.28-5.28
				C336.99,463.04,339.35,460.67,342.27,460.67z"/>
		</g>
		<g>
			<path class="st0" d="M344.19,488.27c2.85-0.65,5.68,1.13,6.33,3.98s-1.13,5.68-3.98,6.33c-2.85,0.65-5.68-1.13-6.33-3.98
				C339.56,491.76,341.34,488.92,344.19,488.27z"/>
		</g>
		<g>
			<path class="st0" d="M352.2,514.76c2.63-1.27,5.79-0.16,7.05,2.47c1.27,2.63,0.16,5.79-2.47,7.05c-2.63,1.27-5.79,0.16-7.05-2.47
				C348.47,519.18,349.57,516.02,352.2,514.76z"/>
		</g>
		<g>
			<path class="st0" d="M365.91,538.79c2.28-1.82,5.61-1.44,7.43,0.84c1.82,2.28,1.44,5.61-0.84,7.43
				c-2.28,1.82-5.61,1.44-7.43-0.84C363.25,543.94,363.63,540.61,365.91,538.79z"/>
		</g>
		<g>
			<path class="st0" d="M384.62,559.18c1.82-2.28,5.14-2.66,7.43-0.84c2.28,1.82,2.66,5.14,0.84,7.43
				c-1.82,2.28-5.14,2.66-7.43,0.84C383.17,564.78,382.8,561.46,384.62,559.18z"/>
		</g>
		<g>
			<path class="st0" d="M407.4,574.89c1.27-2.63,4.42-3.73,7.05-2.47c2.63,1.27,3.73,4.42,2.47,7.05c-1.27,2.63-4.42,3.73-7.05,2.47
				C407.24,580.67,406.13,577.52,407.4,574.89z"/>
		</g>
		<g>
			<path class="st0" d="M433.1,585.13c0.65-2.85,3.48-4.63,6.33-3.98c2.84,0.65,4.62,3.48,3.98,6.33c-0.65,2.85-3.48,4.62-6.33,3.98
				S432.45,587.98,433.1,585.13z"/>
		</g>
		<g>
			<circle class="st0" cx="465.72" cy="589.41" r="5.28"/>
		</g>
		<g>
			<path class="st0" d="M488.04,587.49c-0.65-2.85,1.13-5.68,3.98-6.33c2.84-0.65,5.68,1.13,6.33,3.98s-1.13,5.68-3.98,6.33
				S488.69,590.33,488.04,587.49z"/>
		</g>
		<g>
			<path class="st0" d="M514.52,579.47c-1.27-2.63-0.16-5.79,2.47-7.05c2.63-1.27,5.79-0.16,7.05,2.47
				c1.27,2.63,0.16,5.79-2.47,7.05C518.95,583.21,515.79,582.1,514.52,579.47z"/>
		</g>
		<g>
			<path class="st0" d="M538.56,565.77c-1.82-2.28-1.44-5.61,0.84-7.43c2.28-1.82,5.61-1.45,7.43,0.84
				c1.82,2.28,1.45,5.61-0.84,7.43C543.7,568.42,540.38,568.05,538.56,565.77z"/>
		</g>
		<g>
			<path class="st0" d="M558.94,547.06c-2.28-1.82-2.66-5.14-0.84-7.43c1.82-2.28,5.14-2.66,7.43-0.84
				c2.28,1.82,2.66,5.14,0.84,7.43C564.55,548.5,561.23,548.88,558.94,547.06z"/>
		</g>
		<g>
			<path class="st0" d="M574.65,524.28c-2.63-1.27-3.73-4.42-2.47-7.05c1.27-2.63,4.42-3.73,7.05-2.47
				c2.63,1.27,3.73,4.42,2.47,7.05C580.44,524.44,577.28,525.54,574.65,524.28z"/>
		</g>
		<g>
			<path class="st0" d="M584.9,498.58c-2.84-0.65-4.62-3.48-3.98-6.33s3.48-4.62,6.33-3.98c2.84,0.65,4.62,3.48,3.98,6.33
				C590.58,497.45,587.75,499.23,584.9,498.58z"/>
		</g>
		<g>
			<path class="st0" d="M589.17,471.24c-2.92,0-5.28-2.37-5.28-5.28c0-2.92,2.37-5.28,5.28-5.28c2.92,0,5.28,2.37,5.28,5.28
				C594.46,468.87,592.09,471.24,589.17,471.24z"/>
		</g>
		<g>
			<path class="st0" d="M587.25,443.64c-2.85,0.65-5.68-1.13-6.33-3.98s1.13-5.68,3.98-6.33c2.85-0.65,5.68,1.13,6.33,3.98
				C591.88,440.15,590.1,442.99,587.25,443.64z"/>
		</g>
		<g>
			<path class="st0" d="M579.24,417.15c-2.63,1.27-5.79,0.16-7.05-2.47c-1.27-2.63-0.16-5.79,2.47-7.05
				c2.63-1.27,5.79-0.16,7.05,2.47C582.97,412.73,581.87,415.89,579.24,417.15z"/>
		</g>
		<g>
			<path class="st0" d="M565.53,393.12c-2.28,1.82-5.61,1.44-7.43-0.84c-1.82-2.28-1.44-5.61,0.84-7.43
				c2.28-1.82,5.61-1.44,7.43,0.84C568.19,387.97,567.82,391.3,565.53,393.12z"/>
		</g>
		<g>
			<path class="st0" d="M546.82,372.73c-1.82,2.28-5.14,2.66-7.43,0.84c-2.28-1.82-2.66-5.14-0.84-7.43
				c1.82-2.28,5.14-2.66,7.43-0.84C548.27,367.13,548.64,370.45,546.82,372.73z"/>
		</g>
		<g>
			<path class="st0" d="M524.05,357.02c-1.27,2.63-4.42,3.73-7.05,2.47c-2.63-1.27-3.73-4.42-2.47-7.05
				c1.27-2.63,4.42-3.73,7.05-2.47C524.21,351.23,525.31,354.39,524.05,357.02z"/>
		</g>
		<g>
			<path class="st0" d="M498.34,346.77c-0.65,2.85-3.48,4.62-6.33,3.98c-2.85-0.65-4.63-3.48-3.98-6.33
				c0.65-2.85,3.48-4.63,6.33-3.98C497.21,341.1,498.99,343.93,498.34,346.77z"/>
		</g>
	</g>
	<g>
		<g>
			<path class="st0" d="M468.98,389.76c0,1.8-1.46,3.26-3.26,3.26s-3.26-1.46-3.26-3.26c0-1.8,1.46-3.26,3.26-3.26
				S468.98,387.96,468.98,389.76z"/>
		</g>
		<g>
			<path class="st0" d="M451.95,390.95c0.4,1.76-0.7,3.5-2.45,3.91c-1.76,0.4-3.5-0.7-3.91-2.45c-0.4-1.76,0.7-3.5,2.45-3.91
				C449.8,388.09,451.55,389.19,451.95,390.95z"/>
		</g>
		<g>
			<path class="st0" d="M435.6,395.89c0.78,1.62,0.1,3.57-1.52,4.35c-1.62,0.78-3.57,0.1-4.35-1.52c-0.78-1.62-0.1-3.57,1.52-4.35
				C432.87,393.59,434.82,394.27,435.6,395.89z"/>
		</g>
		<g>
			<path class="st0" d="M420.77,404.35c1.12,1.41,0.89,3.46-0.52,4.58c-1.41,1.12-3.46,0.89-4.58-0.52s-0.89-3.46,0.52-4.58
				C417.59,402.71,419.64,402.94,420.77,404.35z"/>
		</g>
		<g>
			<path class="st0" d="M408.18,415.9c1.41,1.12,1.64,3.18,0.52,4.58c-1.12,1.41-3.17,1.64-4.58,0.52
				c-1.41-1.12-1.64-3.17-0.52-4.58S406.78,414.78,408.18,415.9z"/>
		</g>
		<g>
			<path class="st0" d="M398.49,429.96c1.62,0.78,2.31,2.73,1.52,4.35c-0.78,1.62-2.73,2.3-4.35,1.52c-1.62-0.78-2.3-2.73-1.52-4.35
				C394.92,429.86,396.87,429.18,398.49,429.96z"/>
		</g>
		<g>
			<path class="st0" d="M392.16,445.82c1.76,0.4,2.85,2.15,2.45,3.91c-0.4,1.76-2.15,2.85-3.91,2.45c-1.76-0.4-2.85-2.15-2.45-3.91
				C388.66,446.52,390.41,445.42,392.16,445.82z"/>
		</g>
		<g>
			<path class="st0" d="M389.53,462.69c1.8,0,3.26,1.46,3.26,3.26c0,1.8-1.46,3.26-3.26,3.26c-1.8,0-3.26-1.46-3.26-3.26
				C386.27,464.15,387.73,462.69,389.53,462.69z"/>
		</g>
		<g>
			<path class="st0" d="M390.71,479.73c1.76-0.4,3.5,0.7,3.91,2.45c0.4,1.76-0.7,3.5-2.45,3.91c-1.76,0.4-3.5-0.7-3.91-2.45
				C387.86,481.88,388.96,480.13,390.71,479.73z"/>
		</g>
		<g>
			<path class="st0" d="M395.66,496.08c1.62-0.78,3.57-0.1,4.35,1.52c0.78,1.62,0.1,3.57-1.52,4.35c-1.62,0.78-3.57,0.1-4.35-1.52
				C393.35,498.81,394.04,496.86,395.66,496.08z"/>
		</g>
		<g>
			<path class="st0" d="M404.12,510.91c1.41-1.12,3.46-0.89,4.58,0.52c1.12,1.41,0.89,3.46-0.52,4.58
				c-1.41,1.12-3.46,0.89-4.58-0.52C402.48,514.09,402.71,512.03,404.12,510.91z"/>
		</g>
		<g>
			<path class="st0" d="M415.67,523.49c1.12-1.41,3.17-1.64,4.58-0.52s1.64,3.18,0.52,4.58c-1.12,1.41-3.17,1.64-4.58,0.52
				C414.77,526.95,414.54,524.9,415.67,523.49z"/>
		</g>
		<g>
			<path class="st0" d="M429.72,533.19c0.78-1.62,2.73-2.3,4.35-1.52c1.62,0.78,2.3,2.73,1.52,4.35c-0.78,1.62-2.73,2.3-4.35,1.52
				C429.62,536.76,428.94,534.81,429.72,533.19z"/>
		</g>
		<g>
			<path class="st0" d="M445.59,539.51c0.4-1.76,2.15-2.85,3.91-2.45c1.76,0.4,2.85,2.15,2.45,3.91c-0.4,1.76-2.15,2.85-3.91,2.45
				C446.28,543.02,445.19,541.27,445.59,539.51z"/>
		</g>
		<g>
			<path class="st0" d="M462.46,542.15c0-1.8,1.46-3.26,3.26-3.26s3.26,1.46,3.26,3.26c0,1.8-1.46,3.26-3.26,3.26
				S462.46,543.95,462.46,542.15z"/>
		</g>
		<g>
			<path class="st0" d="M479.5,540.96c-0.4-1.76,0.7-3.5,2.45-3.91c1.76-0.4,3.5,0.7,3.91,2.45c0.4,1.76-0.7,3.5-2.45,3.91
				C481.65,543.82,479.9,542.72,479.5,540.96z"/>
		</g>
		<g>
			<path class="st0" d="M495.84,536.02c-0.78-1.62-0.1-3.57,1.52-4.35c1.62-0.78,3.57-0.1,4.35,1.52c0.78,1.62,0.1,3.57-1.52,4.35
				C498.57,538.32,496.62,537.64,495.84,536.02z"/>
		</g>
		<g>
			<path class="st0" d="M510.68,527.56c-1.12-1.41-0.89-3.46,0.52-4.58s3.46-0.89,4.58,0.52c1.12,1.41,0.89,3.46-0.52,4.58
				C513.85,529.2,511.8,528.97,510.68,527.56z"/>
		</g>
		<g>
			<path class="st0" d="M523.26,516.01c-1.41-1.12-1.64-3.18-0.52-4.58s3.17-1.64,4.58-0.52c1.41,1.12,1.64,3.17,0.52,4.58
				C526.72,516.9,524.67,517.13,523.26,516.01z"/>
		</g>
		<g>
			<path class="st0" d="M532.95,501.95c-1.62-0.78-2.3-2.73-1.52-4.35c0.78-1.62,2.73-2.3,4.35-1.52c1.62,0.78,2.3,2.73,1.52,4.35
				C536.53,502.05,534.58,502.73,532.95,501.95z"/>
		</g>
		<g>
			<path class="st0" d="M539.28,486.09c-1.76-0.4-2.85-2.15-2.45-3.91c0.4-1.76,2.15-2.85,3.91-2.45c1.76,0.4,2.85,2.15,2.45,3.91
				C542.78,485.39,541.03,486.49,539.28,486.09z"/>
		</g>
		<g>
			<path class="st0" d="M541.91,469.22c-1.8,0-3.26-1.46-3.26-3.26c0-1.8,1.46-3.26,3.26-3.26s3.26,1.46,3.26,3.26
				C545.18,467.76,543.72,469.22,541.91,469.22z"/>
		</g>
		<g>
			<path class="st0" d="M540.73,452.18c-1.76,0.4-3.5-0.7-3.91-2.45c-0.4-1.76,0.7-3.5,2.45-3.91c1.76-0.4,3.5,0.7,3.91,2.45
				C543.58,450.03,542.49,451.78,540.73,452.18z"/>
		</g>
		<g>
			<path class="st0" d="M535.78,435.83c-1.62,0.78-3.57,0.1-4.35-1.52c-0.78-1.62-0.1-3.57,1.52-4.35c1.62-0.78,3.57-0.1,4.35,1.52
				C538.09,433.1,537.41,435.05,535.78,435.83z"/>
		</g>
		<g>
			<path class="st0" d="M527.32,421c-1.41,1.12-3.46,0.89-4.58-0.52s-0.89-3.46,0.52-4.58c1.41-1.12,3.46-0.89,4.58,0.52
				C528.96,417.82,528.73,419.88,527.32,421z"/>
		</g>
		<g>
			<path class="st0" d="M515.78,408.42c-1.12,1.41-3.17,1.64-4.58,0.52c-1.41-1.12-1.64-3.18-0.52-4.58
				c1.12-1.41,3.18-1.64,4.58-0.52C516.67,404.96,516.9,407.01,515.78,408.42z"/>
		</g>
		<g>
			<path class="st0" d="M501.72,398.72c-0.78,1.62-2.73,2.3-4.35,1.52c-1.62-0.78-2.3-2.73-1.52-4.35c0.78-1.62,2.73-2.3,4.35-1.52
				C501.82,395.15,502.5,397.1,501.72,398.72z"/>
		</g>
		<g>
			<path class="st0" d="M485.86,392.4c-0.4,1.76-2.15,2.85-3.91,2.45c-1.76-0.4-2.85-2.15-2.45-3.91c0.4-1.76,2.15-2.85,3.91-2.45
				C485.16,388.89,486.26,390.64,485.86,392.4z"/>
		</g>
	</g>
</g>
</svg>
