<svg id="Layer_1" data-name="Layer 1" xmlns="http://www.w3.org/2000/svg" viewBox="0 0 758.8 277.7"><defs><style>.cls-1{fill:#FFFFFF;}</style></defs><path class="cls-1" d="M73.3,5.42c25,0,51.1,12.8,57.8,43.4h-32c-5.6-10.1-13.5-13.9-25.7-13.9-20.3,0-31.5,16.4-31.5,35.5,0,21.1,12.2,34.6,31.5,34.6,13,0,21.2-3.2,27.2-15.3H73.8V62h59.4c.9,12.2.7,24.3-3.4,36.5C120.6,125,96.9,135,73.5,135c-32,0-64.8-21.4-64.8-64.4-.2-43.2,32.6-65.2,64.6-65.2Zm133.8,130.3c-33.3,0-64.4-21.6-64.4-65.3s32.2-65,65-65c32.2,0,64.2,21.4,64.2,65,0,38.5-26.6,65.3-64.8,65.3Zm.2-31.1c15.7,0,31.7-11.7,31.7-34.2s-15.7-33.7-31.3-33.7c-16.4,0-32,10.6-32,33.7C175.6,92.92,191.1,104.62,207.3,104.62ZM391,133.22H353.2l-21.6-39.4H314.3v39.4H281.4V7.22c18.7,0,36.9-.2,55.4,0,30.4,0,45.4,22.5,45.4,44.6-.2,14.4-6.3,28.3-18.7,36.7ZM336.6,67c9.2,0,13.7-7.9,13.7-15.8s-4.3-15.3-13.7-15.3H313.7V67Zm104.7,50.5-7.2,15.7H397.6l56.7-126h21.6l56.1,126H495.9l-7.4-15.7ZM451.9,90H478l-13.1-30.4ZM647.2,7.22h17.4v126H631.7V75.42l-26.8,28.1-1.9,2-28.7-30.1v57.8H541.4V7.22h17.4L603,61.72l44.2-54.5ZM72.4,219.52l26.4-64.2h37.3L83,281.32H62.4l-53.6-126H46.1l15.8,37.4Zm135.9,35.2v26.6h-65v-26.6h16V182H143v-26.6h65.2V182h-16v72.7Zm42.4-35.1v61.8H217.8v-126h19.3L293.8,214v-58.5h32.9v126H308.2Zm337.9,0v61.8H555.7v-126H575L631.7,214v-58.5h32.9v126H646.1l-57.5-61.9Zm-189.1-66.2c25.9,0,54.4,14,59.2,47.7H427c-4.5-13-14-18-27.5-18-19.1,0-31.5,14.4-31.5,35.3,0,18.2,12.2,34.7,31.5,34.7,13.7,0,24.5-6.3,27.9-20h31.7c-4.9,35.8-32.8,50-59.6,50-32.2,0-64.4-22.1-64.4-64.6,0-43.3,32.2-65.1,64.4-65.1ZM547,184H501.3v18h42.1v28.8H501.3v20.5h45.6v30.1H468.4v-126H547Zm126.9.2v-28.8h93.6v28.8H736.7v97.2H704.8v-97.2Zm0-69.8h93.6v18.8H673.9ZM736.3,95l7.8,7.6h23.4L748,83.82a77.4,77.4,0,0,0,9.2-14.6l-11.9-11.6s-6.1,10.8-9.6,14.4l-1.6-1.4L717,53.72c6.6-3.8,11.4-7.8,14.3-12.1a23.51,23.51,0,0,0,4.4-14,17.56,17.56,0,0,0-4.6-12.5,30.76,30.76,0,0,0-2.6-2.4c-4.5-3.5-10.4-5.3-17.7-5.5h-1.5c-1,0-2.1,0-3.1.1-6.9.4-12.6,2.4-17,5.9A19.16,19.16,0,0,0,681.7,29a26.37,26.37,0,0,0,2.2,11,41.82,41.82,0,0,0,6.1,9.5,1.2,1.2,0,0,1-.3,1.8c-.4.2-.7.4-1.1.6-1.4.9-2.6,1.7-3.8,2.6a30.44,30.44,0,0,0-7.3,7.6A26.44,26.44,0,0,0,673.7,75c0,.7-.1,1.4-.1,2.2v1.4a4.87,4.87,0,0,0,.1,1.2v.1c0,.4.1.8.1,1.2a22.57,22.57,0,0,0,7.5,14.4c.5.4.9.8,1.4,1.2q9.15,7.2,24.9,7.2a47.84,47.84,0,0,0,27-8l.8-.5.9-.4Zm-33.7-70.6a10.06,10.06,0,0,1,6.8-2.1,8.55,8.55,0,0,1,6,2,6.8,6.8,0,0,1,2.3,5.4,9.54,9.54,0,0,1-3,7,39.4,39.4,0,0,1-7.6,5.6,1.21,1.21,0,0,1-1.5-.2c-3.6-4.3-5.5-8.2-5.5-11.8A7.23,7.23,0,0,1,702.6,24.42Zm.7,38.6,19.5,19.4,1,1-1.3.8a27.93,27.93,0,0,1-13.2,3.1c-4.3,0-7.9-1.1-10.6-3.3a10.58,10.58,0,0,1-4.2-8.8,11.53,11.53,0,0,1,2.2-7.1,30.68,30.68,0,0,1,5-5.3s.7-.5.9-.6l.7.8Z" transform="translate(-8.7 -5.42)"/></svg>
