<svg id="Layer_1" xmlns="http://www.w3.org/2000/svg" viewBox="0 0 595.3 595.3"><style>.st0{fill:#FFFFFF}.st1{fill:none}</style><path class="st0" d="M163.8 212c33.2 0 67.7 16.9 76.6 57.5h-42.5c-7.4-13.4-17.9-18.4-34.1-18.4-26.9 0-41.7 21.7-41.7 47 0 27.9 16.2 45.8 41.7 45.8 17.2 0 28.1-4.3 36-20.3h-35.5v-36.7H243c1.2 16.2 1 32.2-4.5 48.4-12.2 35.1-43.6 48.4-74.6 48.4-42.4 0-85.9-28.4-85.9-85.4-.1-57.2 43.3-86.3 85.8-86.3zM433 301.9l35-85h49.4L447 383.8h-27.3l-71-166.9h49.4l21 49.6 13.9 35.4zm-177.9 55.8h127.7v25.7H255.1zm85.2-26.3l10.6 10.4h31.9L356.3 316c4.7-5.8 8.9-12.4 12.5-20l-16.2-15.8s-8.3 14.7-13.1 19.6l-2.2-1.9L314 275c9-5.2 15.5-10.7 19.6-16.5 4-5.8 6.1-12.1 6.1-19.1 0-6.8-2.1-12.5-6.3-17.1-1-1.1-2.2-2.2-3.5-3.2-6.1-4.7-14.1-7.3-24.1-7.6h-2c-1.4 0-2.8 0-4.2.1-9.5.6-17.2 3.3-23.2 8-6.8 5.4-10.2 12.6-10.2 21.5 0 5.5 1 10.5 3 15.1 1.8 4.1 4.6 8.5 8.3 13 .6.8.5 1.9-.4 2.4-.5.3-1 .6-1.4.9-1.9 1.2-3.6 2.4-5.1 3.6-4.4 3.3-7.7 6.8-9.9 10.4-3.1 4.9-4.8 10.8-5.2 17.5-.1 1-.1 2-.1 3v1.9c0 .6.1 1.1.1 1.6v.2c.1.6.1 1.1.2 1.7 1 7.9 4.4 14.4 10.2 19.6.6.6 1.3 1.1 2 1.7 8.4 6.5 19.7 9.8 34 9.8 13.6 0 25.9-3.6 36.8-11l1.1-.7.5-.4zm-46-96.4c2.2-1.9 5.3-2.8 9.3-2.8 3.3 0 6.1.9 8.2 2.7 2.1 1.8 3.1 4.2 3.1 7.3 0 3.6-1.3 6.8-4 9.5-2.5 2.5-6 5.1-10.4 7.6-.6.4-1.5.2-2-.3-5-5.8-7.5-11.2-7.5-16-.1-3.4 1-6.1 3.3-8zm1 52.7l26.6 26.5 1.4 1.4-1.8 1.2c-5.4 2.9-11.4 4.3-18 4.3-5.9 0-10.7-1.5-14.5-4.5-3.8-3-5.7-7-5.7-12 0-3.7 1-6.9 3-9.7 1.7-2.5 4-4.9 6.9-7.2 0 0 .9-.6 1.3-.8l.8.8z"/></svg>